<?xml version="1.0" encoding="UTF-8" standalone="no"?>
<!-- Created with Inkscape (http://www.inkscape.org/) -->

<svg
   width="210mm"
   height="297mm"
   viewBox="0 0 210 297"
   version="1.1"
   id="svg10314"
   xml:space="preserve"
   inkscape:version="1.2.2 (732a01da63, 2022-12-09)"
   sodipodi:docname="Menuzinho_Login.svg"
   xmlns:inkscape="http://www.inkscape.org/namespaces/inkscape"
   xmlns:sodipodi="http://sodipodi.sourceforge.net/DTD/sodipodi-0.dtd"
   xmlns:xlink="http://www.w3.org/1999/xlink"
   xmlns="http://www.w3.org/2000/svg"
   xmlns:svg="http://www.w3.org/2000/svg"><sodipodi:namedview
     id="namedview10316"
     pagecolor="#ffffff"
     bordercolor="#999999"
     borderopacity="1"
     inkscape:showpageshadow="0"
     inkscape:pageopacity="0"
     inkscape:pagecheckerboard="0"
     inkscape:deskcolor="#d1d1d1"
     inkscape:document-units="mm"
     showgrid="false"
     showguides="true"
     inkscape:zoom="1.0129245"
     inkscape:cx="313.94244"
     inkscape:cy="419.08354"
     inkscape:window-width="1920"
     inkscape:window-height="991"
     inkscape:window-x="-9"
     inkscape:window-y="-9"
     inkscape:window-maximized="1"
     inkscape:current-layer="layer10"><sodipodi:guide
       position="96.124307,327.82247"
       orientation="0,-1"
       id="guide11076"
       inkscape:locked="false" /><sodipodi:guide
       position="-102.9157,124.08073"
       orientation="1,0"
       id="guide11703"
       inkscape:locked="false" /></sodipodi:namedview><defs
     id="defs10311"><rect
       x="1010.0862"
       y="354.67913"
       width="629.43057"
       height="102.9069"
       id="rect5493" /><rect
       x="950.90547"
       y="370.18905"
       width="668.31841"
       height="64.995025"
       id="rect5383" /><rect
       x="1028.6169"
       y="296.71642"
       width="334.86567"
       height="105.97015"
       id="rect5206" /><linearGradient
       inkscape:collect="always"
       id="linearGradient15425"><stop
         style="stop-color:#ba0709;stop-opacity:1;"
         offset="0"
         id="stop15421" /><stop
         style="stop-color:#380000;stop-opacity:1;"
         offset="1"
         id="stop15423" /></linearGradient><rect
       x="1010.0862"
       y="354.67913"
       width="629.43057"
       height="102.9069"
       id="rect5493-71" /><rect
       x="950.90547"
       y="370.18905"
       width="668.31841"
       height="64.995025"
       id="rect5383-4" /><rect
       x="1028.6169"
       y="296.71642"
       width="334.86567"
       height="105.97015"
       id="rect5206-6" /><rect
       x="1010.0862"
       y="354.67914"
       width="629.43054"
       height="102.9069"
       id="rect5493-31" /><rect
       x="950.90546"
       y="370.18906"
       width="668.31842"
       height="64.995026"
       id="rect5383-11" /><rect
       x="1028.6169"
       y="296.71643"
       width="334.86566"
       height="105.97015"
       id="rect5206-07" /><rect
       x="1028.6169"
       y="296.71643"
       width="334.86566"
       height="105.97015"
       id="rect21151" /><rect
       x="950.90546"
       y="370.18906"
       width="668.31842"
       height="64.995026"
       id="rect21153" /><rect
       x="1028.6169"
       y="296.71643"
       width="334.86566"
       height="105.97015"
       id="rect27960" /><rect
       x="950.90546"
       y="370.18906"
       width="668.31842"
       height="64.995026"
       id="rect27962" /><rect
       x="1010.0862"
       y="354.67914"
       width="629.43054"
       height="102.9069"
       id="rect5493-6" /><rect
       x="950.90546"
       y="370.18906"
       width="668.31842"
       height="64.995026"
       id="rect5383-7" /><rect
       x="1028.6169"
       y="296.71643"
       width="334.86566"
       height="105.97015"
       id="rect5206-5" /><rect
       x="1028.6169"
       y="296.71643"
       width="334.86566"
       height="105.97015"
       id="rect21151-3" /><rect
       x="950.90546"
       y="370.18906"
       width="668.31842"
       height="64.995026"
       id="rect21153-5" /><rect
       x="1028.6169"
       y="296.71643"
       width="334.86566"
       height="105.97015"
       id="rect27960-6" /><rect
       x="950.90546"
       y="370.18906"
       width="668.31842"
       height="64.995026"
       id="rect27962-2" /><rect
       x="1010.0862"
       y="354.67914"
       width="629.43054"
       height="102.9069"
       id="rect5493-7" /><rect
       x="950.90546"
       y="370.18906"
       width="668.31842"
       height="64.995026"
       id="rect5383-0" /><rect
       x="1028.6169"
       y="296.71643"
       width="334.86566"
       height="105.97015"
       id="rect5206-9" /><rect
       x="1028.6169"
       y="296.71643"
       width="334.86566"
       height="105.97015"
       id="rect21151-6" /><rect
       x="950.90546"
       y="370.18906"
       width="668.31842"
       height="64.995026"
       id="rect21153-2" /><rect
       x="1028.6169"
       y="296.71643"
       width="334.86566"
       height="105.97015"
       id="rect27960-61" /><rect
       x="950.90546"
       y="370.18906"
       width="668.31842"
       height="64.995026"
       id="rect27962-8" /><rect
       x="1010.0862"
       y="354.67914"
       width="629.43054"
       height="102.9069"
       id="rect5493-74" /><rect
       x="950.90546"
       y="370.18906"
       width="668.31842"
       height="64.995026"
       id="rect5383-1" /><rect
       x="1028.6169"
       y="296.71643"
       width="334.86566"
       height="105.97015"
       id="rect5206-0" /><rect
       x="1028.6169"
       y="296.71643"
       width="334.86566"
       height="105.97015"
       id="rect21151-60" /><rect
       x="950.90546"
       y="370.18906"
       width="668.31842"
       height="64.995026"
       id="rect21153-3" /><rect
       x="1028.6169"
       y="296.71643"
       width="334.86566"
       height="105.97015"
       id="rect27960-1" /><rect
       x="950.90546"
       y="370.18906"
       width="668.31842"
       height="64.995026"
       id="rect27962-75" /><rect
       x="1010.0862"
       y="354.67914"
       width="629.43054"
       height="102.9069"
       id="rect5493-6-0" /><rect
       x="950.90546"
       y="370.18906"
       width="668.31842"
       height="64.995026"
       id="rect5383-7-5" /><rect
       x="1028.6169"
       y="296.71643"
       width="334.86566"
       height="105.97015"
       id="rect5206-5-8" /><rect
       x="1028.6169"
       y="296.71643"
       width="334.86566"
       height="105.97015"
       id="rect21151-3-3" /><rect
       x="950.90546"
       y="370.18906"
       width="668.31842"
       height="64.995026"
       id="rect21153-5-5" /><rect
       x="1028.6169"
       y="296.71643"
       width="334.86566"
       height="105.97015"
       id="rect27960-6-4" /><rect
       x="950.90546"
       y="370.18906"
       width="668.31842"
       height="64.995026"
       id="rect27962-2-3" /><rect
       x="1010.0862"
       y="354.67914"
       width="629.43054"
       height="102.9069"
       id="rect5493-7-8" /><rect
       x="950.90546"
       y="370.18906"
       width="668.31842"
       height="64.995026"
       id="rect5383-0-1" /><rect
       x="1028.6169"
       y="296.71643"
       width="334.86566"
       height="105.97015"
       id="rect5206-9-4" /><rect
       x="1028.6169"
       y="296.71643"
       width="334.86566"
       height="105.97015"
       id="rect21151-6-9" /><rect
       x="950.90546"
       y="370.18906"
       width="668.31842"
       height="64.995026"
       id="rect21153-2-1" /><rect
       x="1028.6169"
       y="296.71643"
       width="334.86566"
       height="105.97015"
       id="rect27960-61-5" /><rect
       x="950.90546"
       y="370.18906"
       width="668.31842"
       height="64.995026"
       id="rect27962-8-6" /><rect
       x="1010.0862"
       y="354.67914"
       width="629.43054"
       height="102.9069"
       id="rect5493-3" /><rect
       x="950.90546"
       y="370.18906"
       width="668.31842"
       height="64.995026"
       id="rect5383-8" /><rect
       x="1028.6169"
       y="296.71643"
       width="334.86566"
       height="105.97015"
       id="rect5206-92" /><rect
       x="1028.6169"
       y="296.71643"
       width="334.86566"
       height="105.97015"
       id="rect21151-2" /><rect
       x="950.90546"
       y="370.18906"
       width="668.31842"
       height="64.995026"
       id="rect21153-6" /><rect
       x="1028.6169"
       y="296.71643"
       width="334.86566"
       height="105.97015"
       id="rect27960-7" /><rect
       x="950.90546"
       y="370.18906"
       width="668.31842"
       height="64.995026"
       id="rect27962-7" /><rect
       x="1010.0862"
       y="354.67914"
       width="629.43054"
       height="102.9069"
       id="rect5493-6-5" /><rect
       x="950.90546"
       y="370.18906"
       width="668.31842"
       height="64.995026"
       id="rect5383-7-9" /><rect
       x="1028.6169"
       y="296.71643"
       width="334.86566"
       height="105.97015"
       id="rect5206-5-1" /><rect
       x="1028.6169"
       y="296.71643"
       width="334.86566"
       height="105.97015"
       id="rect21151-3-5" /><rect
       x="950.90546"
       y="370.18906"
       width="668.31842"
       height="64.995026"
       id="rect21153-5-0" /><rect
       x="1028.6169"
       y="296.71643"
       width="334.86566"
       height="105.97015"
       id="rect27960-6-3" /><rect
       x="950.90546"
       y="370.18906"
       width="668.31842"
       height="64.995026"
       id="rect27962-2-9" /><rect
       x="1010.0862"
       y="354.67914"
       width="629.43054"
       height="102.9069"
       id="rect5493-7-7" /><rect
       x="950.90546"
       y="370.18906"
       width="668.31842"
       height="64.995026"
       id="rect5383-0-3" /><rect
       x="1028.6169"
       y="296.71643"
       width="334.86566"
       height="105.97015"
       id="rect5206-9-7" /><rect
       x="1028.6169"
       y="296.71643"
       width="334.86566"
       height="105.97015"
       id="rect21151-6-5" /><rect
       x="950.90546"
       y="370.18906"
       width="668.31842"
       height="64.995026"
       id="rect21153-2-6" /><rect
       x="1028.6169"
       y="296.71643"
       width="334.86566"
       height="105.97015"
       id="rect27960-61-6" /><rect
       x="950.90546"
       y="370.18906"
       width="668.31842"
       height="64.995026"
       id="rect27962-8-9" /><rect
       x="1010.0862"
       y="354.67913"
       width="629.43057"
       height="102.9069"
       id="rect5493-4" /><rect
       x="950.90547"
       y="370.18905"
       width="668.31841"
       height="64.995025"
       id="rect5383-89" /><rect
       x="1028.6169"
       y="296.71642"
       width="334.86567"
       height="105.97015"
       id="rect5206-59" /><rect
       x="1010.0862"
       y="354.67914"
       width="629.43054"
       height="102.9069"
       id="rect5493-1" /><rect
       x="950.90546"
       y="370.18906"
       width="668.31842"
       height="64.995026"
       id="rect5383-6" /><rect
       x="1028.6169"
       y="296.71643"
       width="334.86566"
       height="105.97015"
       id="rect5206-7" /><rect
       x="1028.6169"
       y="296.71643"
       width="334.86566"
       height="105.97015"
       id="rect21151-1" /><rect
       x="950.90546"
       y="370.18906"
       width="668.31842"
       height="64.995026"
       id="rect21153-0" /><rect
       x="1028.6169"
       y="296.71643"
       width="334.86566"
       height="105.97015"
       id="rect27960-2" /><rect
       x="950.90546"
       y="370.18906"
       width="668.31842"
       height="64.995026"
       id="rect27962-0" /><rect
       x="1010.0862"
       y="354.67914"
       width="629.43054"
       height="102.9069"
       id="rect5493-6-7" /><rect
       x="950.90546"
       y="370.18906"
       width="668.31842"
       height="64.995026"
       id="rect5383-7-0" /><rect
       x="1028.6169"
       y="296.71643"
       width="334.86566"
       height="105.97015"
       id="rect5206-5-4" /><rect
       x="1028.6169"
       y="296.71643"
       width="334.86566"
       height="105.97015"
       id="rect21151-3-8" /><rect
       x="950.90546"
       y="370.18906"
       width="668.31842"
       height="64.995026"
       id="rect21153-5-7" /><rect
       x="1028.6169"
       y="296.71643"
       width="334.86566"
       height="105.97015"
       id="rect27960-6-5" /><rect
       x="950.90546"
       y="370.18906"
       width="668.31842"
       height="64.995026"
       id="rect27962-2-6" /><rect
       x="1010.0862"
       y="354.67914"
       width="629.43054"
       height="102.9069"
       id="rect5493-7-72" /><rect
       x="950.90546"
       y="370.18906"
       width="668.31842"
       height="64.995026"
       id="rect5383-0-8" /><rect
       x="1028.6169"
       y="296.71643"
       width="334.86566"
       height="105.97015"
       id="rect5206-9-0" /><rect
       x="1028.6169"
       y="296.71643"
       width="334.86566"
       height="105.97015"
       id="rect21151-6-3" /><rect
       x="950.90546"
       y="370.18906"
       width="668.31842"
       height="64.995026"
       id="rect21153-2-0" /><rect
       x="1028.6169"
       y="296.71643"
       width="334.86566"
       height="105.97015"
       id="rect27960-61-7" /><rect
       x="950.90546"
       y="370.18906"
       width="668.31842"
       height="64.995026"
       id="rect27962-8-93" /><linearGradient
       inkscape:collect="always"
       xlink:href="#linearGradient15425"
       id="linearGradient31481"
       gradientUnits="userSpaceOnUse"
       x1="302.84576"
       y1="1027.204"
       x2="311.32339"
       y2="56.517422"
       gradientTransform="translate(-94.939475,-5.5846749)" /><filter
       inkscape:collect="always"
       style="color-interpolation-filters:sRGB"
       id="filter32454"
       x="-0.060394576"
       y="-0.01731074"
       width="1.1207892"
       height="1.0346215"><feGaussianBlur
         inkscape:collect="always"
         stdDeviation="1.6097767"
         id="feGaussianBlur32456" /></filter><rect
       x="1010.0862"
       y="354.67913"
       width="629.43057"
       height="102.9069"
       id="rect5493-2" /><rect
       x="950.90547"
       y="370.18905"
       width="668.31841"
       height="64.995025"
       id="rect5383-2" /><rect
       x="1028.6169"
       y="296.71642"
       width="334.86567"
       height="105.97015"
       id="rect5206-2" /><rect
       x="220.59466"
       y="423.03914"
       width="353.2307"
       height="50.262075"
       id="rect3009" /><rect
       x="1010.0862"
       y="354.67913"
       width="629.43057"
       height="102.9069"
       id="rect5493-1-1" /><rect
       x="950.90547"
       y="370.18905"
       width="668.31841"
       height="64.995025"
       id="rect5383-4-8" /><rect
       x="1028.6169"
       y="296.71642"
       width="334.86567"
       height="105.97015"
       id="rect5206-3" /></defs><g
     inkscape:label="Camada 1"
     inkscape:groupmode="layer"
     id="layer1"><g
       id="g370"
       transform="matrix(0.26458333,0,0,0.26458333,21.022196,-1.8179556)"><g
         inkscape:label="Camada 1"
         id="layer1-8" /><g
         id="layer3"
         inkscape:label="fundo"><rect
           style="opacity:1;fill:#ffffff;fill-opacity:0;stroke-width:2.28283"
           id="rect420"
           width="486.04974"
           height="892.9751"
           x="81.014923"
           y="137.05473"
           ry="15.86072" /><rect
           style="opacity:1;fill:url(#linearGradient31481);fill-opacity:1;stroke-width:2.28283"
           id="rect31477"
           width="486.04974"
           height="892.9751"
           x="-13.924534"
           y="131.47006"
           ry="15.86072"
           transform="translate(94.261912,-12.045327)" /></g><g
         id="layer2"
         inkscape:label="Camada 2"><path
           d="M 127.30247,39.923898 C 113.37617,41.686715 97.510767,48.385443 89.049226,56.318141 81.292805,63.721994 73.71267,79.763662 71.244712,94.218812 70.010741,102.68036 69.48189,238.77021 69.83445,574.05894 l 0.52884,468.02916 4.583351,11.811 c 2.467959,6.3462 7.051285,14.8077 10.048089,18.5096 6.522439,8.2851 22.21155,16.923 35.25644,19.7435 6.52245,1.4104 69.10262,1.9392 206.9553,1.9392 212.24373,0 207.66046,0.1762 225.46489,-8.8142 8.99043,-4.7596 20.09617,-17.8045 24.85574,-29.7916 l 4.05454,-9.8719 0.52894,-210.30455 c 0.35252,-183.86233 0.70503,-210.12837 2.99677,-210.12837 4.05443,0 3.87823,-129.56741 0,-131.15395 -2.11532,-0.70514 -2.64425,-4.75961 -2.64425,-21.33016 0,-16.92308 0.52893,-20.27245 2.64425,-20.27245 2.29163,0 2.64426,-4.75961 2.64426,-31.73079 0,-26.7949 -0.35263,-31.73079 -2.64426,-31.73079 -2.11532,0 -2.64425,-19.56733 -2.99677,-150.36871 C 581.58164,97.215606 581.40544,87.872653 578.23235,79.411112 569.94707,56.318141 552.14253,43.273254 524.29002,39.923898 c -17.62833,-2.115387 -378.8305,-2.115387 -396.98755,0 z M 564.83487,574.05894 V 997.1362 H 325.9725 87.110113 V 574.05894 150.98168 H 325.9725 564.83487 Z"
           id="path350"
           style="fill:#000000;stroke:none;stroke-width:0.176282" /></g><g
         id="layer6"
         inkscape:label="Camada 3"
         style="fill:#000000"><g
           id="g15177"
           style="display:inline;fill:#000000"
           transform="translate(-91.920461,-191.84273)"><rect
             style="fill:#000000;fill-opacity:1;stroke-width:1.38163"
             id="rect4827"
             width="24.292896"
             height="4.4701796"
             x="208.29178"
             y="383.34454"
             ry="2.2350898" /><rect
             style="fill:#000000;fill-opacity:1;stroke-width:1.38163"
             id="rect4967"
             width="24.292896"
             height="4.4701796"
             x="208.29178"
             y="389.31015"
             ry="2.2350898" /><rect
             style="fill:#000000;fill-opacity:1;stroke-width:1.38163"
             id="rect4969"
             width="24.292896"
             height="4.4701796"
             x="208.29178"
             y="395.27579"
             ry="2.2350898" /></g></g></g></g><g
     inkscape:groupmode="layer"
     id="layer4"
     inkscape:label="Camada 4"><g
       id="g598"
       transform="matrix(0.26458333,0,0,0.26458333,240.31841,-1.3289287)"><g
         inkscape:label="Camada 1"
         id="layer1-1" /><g
         id="layer4-9"
         inkscape:label="Camada 2" /><g
         id="layer5"
         inkscape:label="Camada 3"><circle
           style="fill:#ffffff;fill-opacity:1;stroke-width:1.22243"
           id="circle640"
           cx="-494.30368"
           cy="303.07458"
           r="58.636814" /><rect
           style="fill:#ffffff;fill-opacity:1;stroke-width:2.71601"
           id="rect642"
           width="438.00992"
           height="5.6517415"
           x="-716.96521"
           y="410.73633"
           ry="2.8258708" /><rect
           style="fill:#ffffff;fill-opacity:1;stroke-width:2.70943"
           id="rect644"
           width="435.89047"
           height="5.6517415"
           x="-714.84583"
           y="610.73633"
           ry="2.8258708" /><rect
           style="fill:#ffffff;fill-opacity:1;stroke-width:2.71601"
           id="rect646"
           width="438.00989"
           height="5.6517415"
           x="-716.96521"
           y="738.73633"
           ry="2.8258708" /></g><g
         id="layer11"
         inkscape:label="Camada 5" /><g
         id="g660"
         inkscape:label="Camada 4"
         transform="translate(-830)"><text
           xml:space="preserve"
           style="font-weight:bold;font-size:25.7626px;font-family:sans-serif;-inkscape-font-specification:'sans-serif Bold';text-align:center;text-anchor:middle;fill:#d0d0d0;fill-opacity:1;stroke-width:2.00494"
           x="291.20389"
           y="497.97498"
           id="text650"><tspan
             sodipodi:role="line"
             id="tspan648"
             x="291.20389"
             y="497.97498"
             style="fill:#d0d0d0;fill-opacity:1;stroke-width:2.00494">Informações de contato:</tspan></text><text
           xml:space="preserve"
           style="font-weight:bold;font-size:25.7626px;font-family:sans-serif;-inkscape-font-specification:'sans-serif Bold';text-align:center;text-anchor:middle;white-space:pre;inline-size:388.595;display:inline;fill:#d0d0d0;fill-opacity:1;stroke-width:2.00494"
           x="290.61682"
           y="435.97498"
           id="text654"
           transform="translate(-132.93532,123.06468)"><tspan
             x="290.61682"
             y="435.97498"
             id="tspan7703">Email:</tspan></text><text
           xml:space="preserve"
           style="font-weight:bold;font-size:25.7626px;font-family:sans-serif;-inkscape-font-specification:'sans-serif Bold';text-align:center;text-anchor:middle;white-space:pre;inline-size:388.595;display:inline;fill:#d0d0d0;fill-opacity:1;stroke-width:2.00494"
           x="290.61682"
           y="435.97498"
           id="text658"
           transform="translate(-110.81592,251.06468)"><tspan
             x="290.61682"
             y="435.97498"
             id="tspan7705">Empresa:</tspan></text></g></g></g><g
     inkscape:groupmode="layer"
     id="layer9"
     inkscape:label="Camada 2"><rect
       style="fill:#000000;fill-opacity:1;stroke:none;stroke-width:1.27915;stroke-opacity:1;filter:url(#filter32454)"
       id="rect32452"
       width="63.970383"
       height="223.18307"
       x="43.188309"
       y="38.38607"
       ry="0" /><rect
       style="fill:#cbc5c5;fill-opacity:1;stroke:none;stroke-width:1.28021;stroke-opacity:1"
       id="rect11130"
       width="63.970383"
       height="223.55247"
       x="43.188309"
       y="38.38607"
       ry="0" /></g><g
     inkscape:groupmode="layer"
     id="layer10"
     inkscape:label="Camada 3"><a
       id="a7546"
       xlink:href="Menu1.svg"><text
         xml:space="preserve"
         style="font-weight:bold;font-size:6.0391px;font-family:sans-serif;-inkscape-font-specification:'sans-serif Bold';text-align:center;text-anchor:middle;fill:#000000;fill-opacity:1;stroke:none;stroke-width:0.738548;stroke-opacity:1"
         x="75.26786"
         y="60.400181"
         id="text11760"><tspan
           sodipodi:role="line"
           id="tspan11758"
           style="fill:#000000;fill-opacity:1;stroke:none;stroke-width:0.738549"
           x="75.26786"
           y="60.400181">Agendamento</tspan></text></a><a
       id="a3134"
       xlink:href="MeusAgendamentos.svg"><text
         xml:space="preserve"
         style="font-weight:bold;font-size:6.0391px;font-family:sans-serif;-inkscape-font-specification:'sans-serif Bold';text-align:center;text-anchor:middle;fill:#000000;fill-opacity:1;stroke:none;stroke-width:0.738548;stroke-opacity:1"
         x="75.239845"
         y="73.92218"
         id="text11970"><tspan
           sodipodi:role="line"
           id="tspan11968"
           style="fill:#000000;fill-opacity:1;stroke:none;stroke-width:0.738549"
           x="75.239845"
           y="73.92218">Meus </tspan><tspan
           sodipodi:role="line"
           style="fill:#000000;fill-opacity:1;stroke:none;stroke-width:0.738549"
           x="75.239845"
           y="81.471054"
           id="tspan12022">Agendamentos</tspan></text></a><a
       id="a7542"
       xlink:href="Perfil.svg"><text
         xml:space="preserve"
         style="font-weight:bold;font-size:6.0391px;font-family:sans-serif;-inkscape-font-specification:'sans-serif Bold';text-align:center;text-anchor:middle;fill:#711516;fill-opacity:1;stroke:none;stroke-width:0.738548;stroke-opacity:1"
         x="74.995094"
         y="95.19062"
         id="text12028"><tspan
           sodipodi:role="line"
           style="fill:#711516;fill-opacity:1;stroke:none;stroke-width:0.738549"
           x="74.995094"
           y="95.19062"
           id="tspan12026">Login</tspan></text></a></g></svg>
