<?xml version="1.0" encoding="UTF-8" standalone="no"?>
<!-- Created with Inkscape (http://www.inkscape.org/) -->

<svg
   width="210mm"
   height="297mm"
   viewBox="0 0 210 297"
   version="1.1"
   id="svg5"
   xml:space="preserve"
   inkscape:version="1.2.2 (732a01da63, 2022-12-09)"
   sodipodi:docname="login.svg"
   xmlns:inkscape="http://www.inkscape.org/namespaces/inkscape"
   xmlns:sodipodi="http://sodipodi.sourceforge.net/DTD/sodipodi-0.dtd"
   xmlns="http://www.w3.org/2000/svg"
   xmlns:svg="http://www.w3.org/2000/svg"><sodipodi:namedview
     id="namedview7"
     pagecolor="#ffffff"
     bordercolor="#999999"
     borderopacity="1"
     inkscape:showpageshadow="0"
     inkscape:pageopacity="0"
     inkscape:pagecheckerboard="0"
     inkscape:deskcolor="#d1d1d1"
     inkscape:document-units="mm"
     showgrid="false"
     inkscape:zoom="0.50646226"
     inkscape:cx="308.019"
     inkscape:cy="567.66323"
     inkscape:window-width="1920"
     inkscape:window-height="991"
     inkscape:window-x="-9"
     inkscape:window-y="-9"
     inkscape:window-maximized="1"
     inkscape:current-layer="g210" /><defs
     id="defs2" /><g
     inkscape:label="Camada 1"
     inkscape:groupmode="layer"
     id="layer1"><g
       id="g233"
       transform="translate(3.7107748,1.1978394)"><g
         id="layer2"
         inkscape:label="Fundo"><rect
           style="fill:#ffffff;fill-opacity:1;stroke-width:0.781"
           id="rect452"
           width="130.76866"
           height="243.06715"
           x="42.048561"
           y="28.444031" /></g><g
         id="layer4"
         inkscape:label="camada 3" /><g
         inkscape:label="Camada 1"
         id="layer1-9"><g
           id="g210"
           transform="matrix(0.35879067,0,0,0.35879067,-13.21146,-46.437557)"><g
             inkscape:label="Camada 1"
             id="layer1-0"
             transform="translate(2.9120864)"><path
               d="m 182.75253,147.97448 c -10.53333,1.33333 -22.53333,6.4 -28.93333,12.4 -5.86667,5.6 -11.6,17.73333 -13.46667,28.66667 -0.93333,6.4 -1.33333,109.33333 -1.06667,362.93333 l 0.4,354.00004 3.46667,8.9333 c 1.86667,4.8 5.33333,11.2 7.6,14 4.93333,6.2667 16.8,12.8 26.66667,14.9333 4.93333,1.0667 52.26666,1.4667 156.53333,1.4667 160.5333,0 157.0667,0.1333 170.5333,-6.6667 6.8,-3.6 15.2,-13.4666 18.8,-22.5333 l 3.0667,-7.4667 0.4,-159.06664 c 0.2667,-139.06667 0.5333,-158.93333 2.2667,-158.93333 3.0666,0 2.9333,-98 0,-99.2 -1.6,-0.53334 -2,-3.6 -2,-16.13334 0,-12.8 0.4,-15.33333 2,-15.33333 1.7333,0 2,-3.6 2,-24 0,-20.26667 -0.2667,-24 -2,-24 -1.6,0 -2,-14.8 -2.2667,-113.73333 -0.4,-106.93334 -0.5333,-114 -2.9333,-120.4 -6.2667,-17.46667 -19.7334,-27.33334 -40.8,-29.86667 -13.33337,-1.6 -286.53337,-1.6 -300.2667,0 z m 330.9333,404 V 871.97452 H 333.0192 152.35253 v -320.00004 -320 H 333.0192 513.68583 Z"
               id="path146"
               style="fill:#000000;stroke:none;stroke-width:0.133333" /></g><text
             xml:space="preserve"
             style="font-style:italic;font-variant:normal;font-weight:normal;font-stretch:normal;font-size:13.161px;font-family:Arial;-inkscape-font-specification:'Arial Italic';fill:#d0d0d0;fill-opacity:1;stroke:none;stroke-width:1.97414;stroke-dasharray:none"
             x="279.65088"
             y="827.19287"
             id="text1461"><tspan
               sodipodi:role="line"
               id="tspan1459"
               x="279.65088"
               y="827.19287"
               style="font-style:italic;font-variant:normal;font-weight:normal;font-stretch:normal;font-family:Arial;-inkscape-font-specification:'Arial Italic';fill:#d0d0d0;fill-opacity:1;stroke-width:1.97414">Esqueceu a senha?</tspan></text><g
             id="g1563"
             transform="matrix(0.98738487,0,0,1.0447253,335.38442,-1.6525513)" /><g
             id="g7356"
             transform="matrix(1.0555037,0,0,1.7269852,-15.694817,-492.91718)"
             style="stroke:#000000;stroke-opacity:1;opacity:1;fill:#c19a9a;fill-opacity:0"><rect
               style="opacity:1;fill:#c19a9a;fill-opacity:0;stroke:#000000;stroke-width:1.68343;stroke-dasharray:none;stroke-opacity:1"
               id="rect7348"
               width="306.81158"
               height="22.153196"
               x="182.8609"
               y="559.6059"
               ry="9.266202" /></g><text
             xml:space="preserve"
             style="font-style:normal;font-variant:normal;font-weight:normal;font-stretch:normal;font-size:13.6213px;font-family:sans-serif;-inkscape-font-specification:sans-serif;fill:#000000;fill-opacity:1;stroke:none;stroke-width:2.0432;stroke-dasharray:none"
             x="198.50278"
             y="498.98383"
             id="text1534"><tspan
               sodipodi:role="line"
               id="tspan1532"
               x="198.50278"
               y="498.98383"
               style="font-style:normal;font-variant:normal;font-weight:normal;font-stretch:normal;font-family:sans-serif;-inkscape-font-specification:sans-serif;fill:#000000;fill-opacity:1;stroke-width:2.0432">E-mail /  Usuário da ETEC</tspan></text><g
             id="g7729"
             transform="matrix(1.0555037,0,0,1.7269852,-15.694817,-430.97306)"
             style="stroke:#000000;stroke-opacity:1;fill:#c19a9a;fill-opacity:0"><rect
               style="opacity:1;fill:#c19a9a;fill-opacity:0;stroke:#000000;stroke-width:1.68343;stroke-dasharray:none;stroke-opacity:1"
               id="rect7727"
               width="306.81158"
               height="22.153196"
               x="182.8609"
               y="559.6059"
               ry="9.266202" /></g><text
             xml:space="preserve"
             style="font-style:normal;font-variant:normal;font-weight:normal;font-stretch:normal;font-size:13.6213px;font-family:sans-serif;-inkscape-font-specification:sans-serif;fill:#000000;fill-opacity:1;stroke:none;stroke-width:2.0432;stroke-dasharray:none"
             x="198.50278"
             y="560.92767"
             id="text7733"><tspan
               sodipodi:role="line"
               id="tspan7731"
               x="198.50278"
               y="560.92767"
               style="font-style:normal;font-variant:normal;font-weight:normal;font-stretch:normal;font-family:sans-serif;-inkscape-font-specification:sans-serif;fill:#000000;fill-opacity:1;stroke-width:2.0432">Senha</tspan></text><rect
             style="fill:#8f0105;fill-opacity:0;stroke:#000000;stroke-width:1.29145;stroke-dasharray:none;stroke-opacity:1"
             id="rect9582"
             width="143.05328"
             height="27.962687"
             x="267.1026"
             y="593.62323"
             ry="11.696185" /><text
             xml:space="preserve"
             style="font-style:normal;font-variant:normal;font-weight:normal;font-stretch:normal;font-size:13.6213px;font-family:sans-serif;-inkscape-font-specification:sans-serif;fill:#000000;fill-opacity:1;stroke:none;stroke-width:2.0432;stroke-dasharray:none"
             x="309.7327"
             y="613.85596"
             id="text10921"><tspan
               sodipodi:role="line"
               id="tspan10919"
               x="309.7327"
               y="613.85596"
               style="font-style:normal;font-variant:normal;font-weight:normal;font-stretch:normal;font-family:sans-serif;-inkscape-font-specification:sans-serif;fill:#000000;fill-opacity:1;stroke-width:2.0432">ENTRAR</tspan></text></g></g><g
         id="layer5"
         inkscape:label="Camada 2"
         style="fill:#000000" /></g></g></svg>
